# xmcd CD database file
#
# Track frame offsets:
#	150
#	15652
#	42000
#	59158
#	70081
#	86706
#	102759
#	117510
#	131635
#	141611
#
# Disc length: 2060 seconds
#
# Revision: 0
# Processed by: cddbd v1.5.2PL0 Copyright (c) Steve Scherf et al.
# Submitted via: CDex 1.51
#
DISCID=93080a0a
DTITLE=Jerry Reed - The Gallant Few
DYEAR=2008
DGENRE=Country
TTITLE0=Warrior Spirit
TTITLE1=American Veteran
TTITLE2=Today Is Mine
TTITLE3='Til The Fourth of July
TTITLE4=Boys of 44
TTITLE5=Stars and Stripes Forever
TTITLE6=You
TTITLE7=Going Home
TTITLE8=Wounded Warrior
TTITLE9=American Warrior
EXTD=YEAR: 2008
EXTT0=
EXTT1=
EXTT2=
EXTT3=
EXTT4=
EXTT5=
EXTT6=
EXTT7=
EXTT8=
EXTT9=
PLAYORDER=
